<?xml version="1.0" encoding="UTF-8" standalone="no"?>
<!DOCTYPE svg PUBLIC "-//W3C//DTD SVG 1.1//EN" "http://www.w3.org/Graphics/SVG/1.1/DTD/svg11.dtd">
<svg xmlns="http://www.w3.org/2000/svg" xmlns:xlink="http://www.w3.org/1999/xlink" version="1.1" width="595.276pt" height="182.384pt" viewBox="0 0 595.276 182.384">
<g enable-background="new">
<clipPath id="cp0">
<path transform="matrix(1,0,0,-1,0,182.384)" d="M 0 182.384 L 595.276 182.384 L 595.276 0 L 0 0 Z "/>
</clipPath>
<g clip-path="url(#cp0)">
<path transform="matrix(1,0,0,-1,99.2671,40.435609)" d="M 0 0 C 3.398 -2.226 5.389 -5.624 5.389 -10.075 C 5.389 -14.996 2.226 -20.033 -1.875 -20.033 C -4.686 -20.033 -6.795 -17.924 -6.795 -13.941 C -6.795 -8.669 -3.866 -3.866 0 0 M -1.992 -29.054 C 7.849 -29.054 16.284 -21.205 16.284 -9.84 C 16.284 -3.397 13.473 2.226 8.435 6.209 C 10.661 7.498 12.887 8.435 14.761 9.021 C 19.33 10.426 20.736 11.247 20.736 13.355 C 20.736 16.284 18.861 18.042 15.23 18.042 C 10.192 18.042 3.515 15.347 -2.578 11.013 C -5.272 11.598 -8.201 11.95 -11.364 11.95 C -39.832 11.95 -74.391 -18.042 -74.391 -52.367 C -74.391 -73.571 -59.513 -85.638 -39.597 -85.638 C -26.125 -85.638 -14.761 -78.375 -7.498 -71.229 C -15.229 -94.893 -26.007 -119.26 -47.798 -119.26 C -62.325 -119.26 -75.094 -107.897 -77.906 -93.019 C -78.023 -92.784 -77.555 -92.55 -77.32 -92.784 C -68.65 -99.228 -56.467 -104.382 -45.221 -105.671 C -41.706 -106.14 -39.246 -103.444 -39.128 -101.102 C -38.777 -98.642 -40.417 -96.884 -43.346 -96.533 C -54.476 -95.01 -66.659 -89.387 -73.806 -83.06 C -76.5 -80.717 -78.96 -79.664 -82.006 -79.664 C -85.872 -79.664 -88.684 -81.42 -88.801 -87.629 C -88.684 -113.637 -69.354 -128.633 -47.681 -128.633 C -15.815 -128.633 -4.569 -95.947 4.569 -67.948 C 8.435 -55.881 11.012 -51.195 12.652 -48.969 C 14.292 -46.743 15.23 -45.22 15.23 -43.814 C 15.23 -41.823 13.59 -40.183 11.129 -40.183 C 7.849 -40.183 3.515 -44.869 -4.217 -54.71 C -11.364 -63.964 -22.728 -76.266 -38.777 -76.266 C -53.069 -76.266 -62.207 -67.128 -62.207 -52.367 C -62.207 -23.313 -34.091 2.578 -11.364 2.694 C -15.347 -2.226 -17.924 -7.966 -17.924 -13.941 C -17.924 -23.313 -11.481 -29.054 -1.992 -29.054 " fill="#231f20"/>
<path transform="matrix(1,0,0,-1,143.5542,65.8574)" d="M 0 0 C 5.271 0 8.083 4.452 8.083 7.615 C 8.083 11.013 5.74 13.121 2.108 13.121 C -2.226 13.121 -6.209 9.606 -6.209 5.741 C -6.209 2.108 -3.515 0 0 0 " fill="#231f20"/>
<path transform="matrix(1,0,0,-1,179.8726,102.526409)" d="M 0 0 C -4.452 -6.56 -9.255 -11.48 -13.941 -11.48 C -17.104 -11.48 -19.447 -9.138 -19.447 -4.451 C -19.447 8.787 -7.263 23.782 1.875 23.782 C 6.327 23.782 8.903 21.673 9.372 18.159 C 6.678 11.481 3.983 6.092 0 0 M 24.953 -4.569 C 23.548 -4.569 22.142 -5.271 20.853 -7.38 C 19.213 -9.958 17.104 -11.949 15.112 -11.949 C 13.355 -11.949 11.949 -10.309 11.949 -6.794 C 11.949 -.82 15.464 7.498 19.916 17.339 C 23.313 22.845 24.719 25.54 24.719 27.18 C 24.719 29.523 23.079 31.163 20.268 31.163 C 17.456 31.163 14.292 28.82 12.77 25.188 C 10.543 29.171 7.029 31.163 2.109 31.163 C -11.845 31.163 -26.835 17.896 -30.681 3.117 C -35.884 -4.879 -42.046 -12.066 -46.862 -12.066 C -49.088 -12.066 -50.846 -10.426 -50.846 -6.209 C -50.846 -.468 -48.268 6.561 -44.285 14.879 C -39.833 22.025 -38.31 25.305 -38.31 27.18 C -38.31 29.523 -40.067 31.163 -42.762 31.163 C -45.808 31.163 -48.737 28.82 -52.72 21.205 C -56.938 13.122 -61.624 1.875 -61.624 -5.975 C -61.624 -14.644 -56.352 -18.978 -48.268 -18.978 C -42.05 -18.978 -36.057 -15.269 -30.699 -9.844 C -28.64 -15.797 -23.303 -18.978 -16.401 -18.978 C -10.075 -18.978 -3.983 -14.878 1.171 -8.903 C 2.109 -15.464 7.498 -18.978 13.941 -18.978 C 21.908 -18.978 27.999 -11.363 27.999 -7.498 C 27.999 -5.74 26.593 -4.569 24.953 -4.569 " fill="#231f20"/>
<path transform="matrix(1,0,0,-1,337.7959,40.435609)" d="M 0 0 C 3.397 -2.226 5.39 -5.624 5.39 -10.075 C 5.39 -14.996 2.226 -20.033 -1.874 -20.033 C -4.686 -20.033 -6.794 -17.924 -6.794 -13.941 C -6.794 -8.669 -3.865 -3.866 0 0 M -1.991 -29.054 C 7.85 -29.054 16.284 -21.205 16.284 -9.84 C 16.284 -3.397 13.473 2.226 8.435 6.209 C 10.661 7.498 12.888 8.435 14.762 9.021 C 19.33 10.426 20.736 11.247 20.736 13.355 C 20.736 16.284 18.861 18.042 15.23 18.042 C 10.192 18.042 3.515 15.347 -2.577 11.013 C -5.271 11.598 -8.2 11.95 -11.363 11.95 C -39.832 11.95 -74.391 -18.042 -74.391 -52.367 C -74.391 -73.571 -59.513 -85.638 -39.597 -85.638 C -26.125 -85.638 -14.761 -78.375 -7.498 -71.229 C -15.229 -94.893 -26.008 -119.26 -47.798 -119.26 C -62.325 -119.26 -75.094 -107.897 -77.906 -93.019 C -78.022 -92.784 -77.554 -92.55 -77.32 -92.784 C -68.651 -99.228 -56.467 -104.382 -45.22 -105.671 C -41.706 -106.14 -39.246 -103.444 -39.128 -101.102 C -38.777 -98.642 -40.417 -96.884 -43.346 -96.533 C -54.476 -95.01 -66.659 -89.387 -73.806 -83.06 C -76.5 -80.717 -78.96 -79.664 -82.006 -79.664 C -85.872 -79.664 -88.684 -81.42 -88.801 -87.629 C -88.684 -113.637 -69.354 -128.633 -47.681 -128.633 C -15.815 -128.633 -4.569 -95.947 4.568 -67.948 C 8.435 -55.881 11.013 -51.195 12.652 -48.969 C 14.293 -46.743 15.23 -45.22 15.23 -43.814 C 15.23 -41.823 13.59 -40.183 11.13 -40.183 C 7.85 -40.183 3.515 -44.869 -4.217 -54.71 C -11.363 -63.964 -22.728 -76.266 -38.777 -76.266 C -53.069 -76.266 -62.207 -67.128 -62.207 -52.367 C -62.207 -23.313 -34.091 2.578 -11.363 2.694 C -15.347 -2.226 -17.925 -7.966 -17.925 -13.941 C -17.925 -23.313 -11.48 -29.054 -1.991 -29.054 " fill="#231f20"/>
<path transform="matrix(1,0,0,-1,547.7402,113.773)" d="M 0 0 C -4.218 0 -7.615 2.929 -7.615 8.904 C -7.615 21.908 3.866 34.677 11.949 34.677 C 15.934 34.677 18.627 32.1 18.627 26.36 C 18.627 14.059 9.489 0 0 0 M -80.603 11.247 C -85.055 4.687 -89.858 -.233 -94.545 -.233 C -97.707 -.233 -100.05 2.109 -100.05 6.795 C -100.05 20.151 -87.867 35.029 -78.729 35.029 C -74.276 35.029 -71.699 32.92 -71.231 29.405 C -73.926 22.728 -76.62 17.339 -80.603 11.247 M -158.51 35.263 C -156.519 35.263 -155.113 34.443 -155.113 32.92 C -155.113 27.296 -163.432 21.908 -175.967 19.331 C -172.217 28.82 -164.134 35.263 -158.51 35.263 M 12.185 42.41 C -1.275 42.41 -16.773 29.551 -19.403 13.872 C -24.538 6.076 -30.545 -.82 -35.264 -.82 C -37.84 -.82 -39.715 .703 -39.715 4.57 C -39.715 11.715 -35.028 23.665 -29.521 35.498 L -21.088 35.498 C -18.628 35.498 -16.987 36.669 -16.987 39.129 C -16.987 41.004 -18.511 42.41 -21.088 42.41 L -26.125 42.41 L -22.024 50.61 C -19.096 55.296 -17.455 58.342 -17.455 60.1 C -17.455 62.56 -19.33 64.2 -22.259 64.2 C -24.719 64.2 -27.999 61.739 -31.865 54.242 L -37.957 42.41 L -44.752 42.41 C -47.33 42.41 -48.97 41.355 -48.97 39.012 C -48.97 36.552 -47.33 35.498 -44.752 35.498 L -41.121 35.498 C -44.424 28.14 -47.383 20.742 -49.088 14.522 C -54.311 6.462 -60.408 -.82 -65.256 -.82 C -67.13 -.82 -68.654 .821 -68.654 4.452 C -68.654 10.427 -65.139 18.745 -60.688 28.585 C -57.29 34.092 -55.884 36.786 -55.884 38.426 C -55.884 40.77 -57.524 42.41 -60.336 42.41 C -63.147 42.41 -66.311 40.066 -67.834 36.435 C -70.059 40.417 -73.574 42.41 -78.494 42.41 C -92.373 42.41 -107.276 29.371 -111.221 14.638 C -116.464 6.535 -122.826 -.702 -127.698 -.702 C -130.042 -.702 -131.798 1.172 -131.798 5.038 C -131.798 12.067 -127.464 23.782 -121.841 36.201 L -121.724 36.201 C -114.227 48.97 -107.432 60.685 -107.432 65.254 C -107.432 67.832 -109.305 69.588 -112.117 69.588 C -114.577 69.588 -118.442 65.957 -121.724 59.631 C -128.664 46.304 -137.646 27.281 -141.116 14.273 C -147.21 5.173 -156.291 .118 -167.062 .118 C -173.271 .118 -177.958 3.281 -177.958 9.139 C -177.958 10.076 -177.958 11.013 -177.841 11.833 C -158.51 14.645 -143.867 23.314 -143.867 32.334 C -143.867 38.777 -149.021 42.41 -157.925 42.41 C -171.396 42.41 -190.024 28.117 -190.024 8.787 C -190.024 -1.874 -182.176 -7.731 -168.352 -7.731 C -157.98 -7.731 -149.21 -4.344 -142.145 1.385 C -140.761 -4.708 -136.038 -7.731 -129.104 -7.731 C -122.842 -7.731 -116.762 -3.972 -111.34 1.516 C -109.31 -4.51 -103.949 -7.731 -97.005 -7.731 C -90.679 -7.731 -84.587 -3.631 -79.432 2.343 C -78.494 -4.217 -73.105 -7.731 -66.662 -7.731 C -60.745 -7.731 -55.073 -4.364 -49.949 .636 C -48.277 -4.896 -43.482 -7.731 -36.668 -7.731 C -30.207 -7.731 -23.99 -3.722 -18.474 2.052 C -15.829 -4.383 -9.432 -7.731 -1.288 -7.731 C 14.645 -7.731 30.46 9.958 30.46 26.125 C 30.46 36.435 23.665 42.41 12.185 42.41 " fill="#231f20"/>
</g>
</g>
</svg>
